<?xml version="1.0" encoding="UTF-8"?><svg id="Layer_2" xmlns="http://www.w3.org/2000/svg" width="323.05" height="60.16" xmlns:xlink="http://www.w3.org/1999/xlink" viewBox="0 0 323.05 60.16"><defs><style>.cls-1{fill:none;}.cls-2{clip-path:url(#clippath);}.cls-3,.cls-4{fill:#fff;}.cls-5{letter-spacing:-.02em;}.cls-4{font-family:InterV-Black, 'Inter V';font-size:50px;font-variation-settings:'wght' 900, 'slnt' 0;font-weight:800;}</style><clipPath id="clippath"><rect class="cls-1" x="36.4" y=".11" width="69.02" height="44"/></clipPath></defs><g id="Layer_1-2"><g><text class="cls-4" transform="translate(0 44.18)"><tspan x="0" y="0">B</tspan></text><text class="cls-4" transform="translate(108 43.18)"><tspan x="0" y="0">k-a-Bi</tspan><tspan class="cls-5" x="155.47" y="0">k</tspan><tspan x="184.66" y="0">e</tspan></text><g class="cls-2"><path class="cls-3" d="m98.49,4.26c0,2.29-1.85,4.15-4.14,4.15s-4.14-1.86-4.14-4.15S92.06.11,94.34.11s4.14,1.86,4.14,4.15Zm-32.54-.45l6.91,6.66c.04.05.13.05.14.05h10.32l-3.15,3.16c-.76.76-.76,2,0,2.76l7.63,7.64c.76.76,2,.76,2.76,0s.76-2,0-2.76l-6.28-6.27,5.08-5.09c.62-.89.9-1.82.85-2.89,0-1.91-1.53-3.45-3.44-3.45h-20.81c-.16.02-.04.14,0,.18Zm.19,2.71c-.14.03-.25.17-.25.31v5.11l.02,25.66c0,1.18.96,2.12,2.13,2.12s2.11-.96,2.11-2.14v-8.08l8.14-7.97c.11-.11.2-.24.27-.35.08-.12.13-.23.19-.35.21-.51.2-1.09,0-1.6,0,0-.08-.1-.08-.1-.1-.21-.21-.42-.39-.6l-8.21-8.26-3.65-3.65c-.07-.07-.19-.11-.29-.08h0Zm4.02,9.84l3.65,3.68-3.65,3.8v-7.48Z"/></g><path class="cls-3" d="m49.22,15.38c-8.05,0-14.59,6.55-14.59,14.62s6.54,14.62,14.59,14.62,14.59-6.55,14.59-14.62-6.54-14.62-14.59-14.62Zm0,4.1c5.7,0,10.32,4.7,10.32,10.52s-4.62,10.54-10.32,10.54-10.3-4.72-10.3-10.54,4.6-10.52,10.3-10.52Z"/><path class="cls-3" d="m93.39,15.25c-8.04,0-14.57,6.54-14.57,14.6s6.53,14.6,14.57,14.6,14.57-6.54,14.57-14.6-6.53-14.6-14.57-14.6Zm0,4.1c5.69,0,10.31,4.69,10.31,10.5s-4.61,10.52-10.31,10.52-10.28-4.71-10.28-10.52,4.59-10.5,10.28-10.5Z"/></g></g></svg>